<svg width="120" height="120" viewBox="0 0 120 120" fill="none" xmlns="http://www.w3.org/2000/svg">
<g clip-path="url(#clip0_7_18)">
<path d="M435.916 46.0829C437.704 46.0829 439.132 47.5616 439.062 49.3418L438.619 60.6553H438.846C440.221 55.419 442.563 51.5454 445.877 49.0403C449.192 46.5352 453.829 45.2827 459.77 45.2827C466.248 45.2827 471.281 47.1035 474.869 50.7451C478.452 54.3868 480.246 59.6637 480.246 66.57V102.32H464.465V70.1015C464.465 67.3703 464.046 65.1899 463.207 63.5547C462.368 61.9252 461.093 60.7075 459.374 59.913C457.662 59.1186 455.541 58.7185 453.025 58.7185C450.281 58.7185 447.858 59.3273 445.761 60.5393C443.664 61.757 442.044 63.5547 440.897 65.9496C439.755 68.3387 439.184 71.2438 439.184 74.6593V102.325H423.404V46.0829H435.916Z" fill="#2A1E3C"/>
<path d="M525.094 84.2215C524.966 84.5578 524.838 84.8826 524.686 85.1899C523.806 86.9759 522.513 88.3213 520.795 89.2317C519.076 90.1421 517.113 90.6002 514.906 90.6002C512.465 90.6002 510.385 89.9739 508.673 88.7214C506.96 87.4688 505.644 85.6074 504.729 83.1429C503.815 80.6785 503.354 77.6979 503.354 74.207C503.354 70.7161 503.832 67.6254 504.781 65.1551C505.737 62.6906 507.106 60.8466 508.9 59.6347C510.688 58.4227 512.844 57.8139 515.36 57.8139C517.416 57.8139 519.228 58.272 520.795 59.1824C522.356 60.0928 523.579 61.4787 524.453 63.3401C524.785 64.0417 525.053 64.8014 525.257 65.6132H539.785C539.348 62.1629 538.404 59.1418 536.919 56.5671C534.822 52.9255 531.886 50.1363 528.111 48.1995C524.337 46.2627 519.857 45.2943 514.673 45.2943C509.185 45.2943 504.438 46.454 500.436 48.7678C496.434 51.0815 493.288 54.4216 490.999 58.7881C488.71 63.1545 487.568 68.3329 487.568 74.3288C487.568 80.3247 488.634 85.2769 490.772 89.6434C492.904 94.0099 496.015 97.35 500.092 99.6637C504.17 101.977 508.801 103.137 513.985 103.137C519.17 103.137 523.841 102.186 527.768 100.29C531.694 98.3937 534.705 95.6045 536.803 91.9223C538.09 89.655 538.981 87.0919 539.476 84.2389H525.088L525.094 84.2215Z" fill="#2A1E3C"/>
<path d="M212.712 80.4349C212.462 81.1018 212.171 81.7396 211.833 82.3427C210.534 84.6564 208.746 86.4598 206.456 87.753C204.167 89.0461 201.423 89.6898 198.219 89.6898C194.48 89.6898 191.148 88.7388 188.212 86.8426C185.276 84.9464 183.045 82.1397 181.519 78.4169C179.992 74.6999 179.229 70.2175 179.229 64.9812C179.229 59.7449 179.992 55.2682 181.519 51.5454C183.045 47.8284 185.235 44.9812 188.095 43.0038C190.955 41.0322 194.328 40.0464 198.219 40.0464C201.039 40.0464 203.654 40.6727 206.054 41.9252C208.454 43.1777 210.342 45.0391 211.716 47.5036C212.276 48.5126 212.718 49.6028 213.05 50.7683H228.615C228.108 46.6338 226.839 42.9458 224.811 39.7043C222.103 35.3784 218.404 32.0789 213.72 29.7999C209.031 27.521 203.602 26.3845 197.421 26.3845C190.175 26.3845 183.872 27.8632 178.495 30.8263C173.119 33.7837 168.965 38.1908 166.029 44.036C163.094 49.8811 161.626 56.8629 161.626 64.987C161.626 73.111 163.07 79.9594 165.971 85.764C168.866 91.5686 173.026 95.9524 178.437 98.9156C183.849 101.873 190.14 103.357 197.305 103.357C203.48 103.357 208.949 102.221 213.714 99.942C218.479 97.6631 222.213 94.381 224.922 90.0957C226.74 87.2195 227.934 83.9954 228.528 80.4465H212.707L212.712 80.4349Z" fill="#2A1E3C"/>
<path d="M401.192 84.2215C400.907 85.6364 400.458 86.8136 399.852 87.753C399.014 89.0461 397.814 89.9565 396.252 90.4842C394.691 91.0177 392.763 91.2786 390.474 91.2786C387.957 91.2786 385.744 90.7277 383.839 89.626C381.934 88.5242 380.501 86.744 379.552 84.2737C378.8 82.3369 378.352 79.9594 378.194 77.1586H415.406V72.2644C415.406 66.3439 414.392 61.3569 412.377 57.292C410.355 53.2328 407.495 50.2175 403.802 48.2401C400.103 46.2685 395.664 45.2827 390.48 45.2827C384.608 45.2827 379.575 46.4019 375.381 48.6402C371.187 50.8785 367.965 54.236 365.717 58.7185C363.468 63.1951 362.344 68.5474 362.344 74.7695C362.344 80.9916 363.433 85.8684 365.606 90.0841C367.779 94.294 370.983 97.5239 375.212 99.7623C379.441 102.001 384.416 103.12 390.136 103.12C395.245 103.12 399.683 102.285 403.458 100.615C407.233 98.9446 410.151 96.5903 412.208 93.5576C413.99 90.9307 415.027 87.8168 415.324 84.2215H401.192ZM383.612 58.7765C385.441 57.6747 387.73 57.1238 390.474 57.1238C392.915 57.1238 394.936 57.5065 396.538 58.2604C398.14 59.02 399.357 60.1392 400.196 61.6179C401.035 63.0965 401.454 65.0913 401.454 67.5964V68.3908H378.55C378.777 66.8774 379.091 65.5204 379.499 64.3491C380.414 61.728 381.789 59.8724 383.618 58.7707L383.612 58.7765Z" fill="#2A1E3C"/>
<path d="M596.965 57.2978C594.944 53.2386 592.084 50.2232 588.39 48.2459C584.691 46.2743 580.253 45.2885 575.068 45.2885C569.196 45.2885 564.163 46.4077 559.969 48.646C555.775 50.8843 552.554 54.2418 550.305 58.7243C548.057 63.2009 546.933 68.5532 546.933 74.7753C546.933 80.9974 548.022 85.8742 550.189 90.0899C552.362 94.2998 555.565 97.5297 559.795 99.768C564.024 102.006 569.004 103.126 574.719 103.126C579.827 103.126 584.266 102.291 588.041 100.62C591.816 98.9504 594.734 96.5961 596.79 93.5634C598.573 90.9365 599.61 87.8226 599.907 84.2273H585.781C585.495 85.6422 585.047 86.8194 584.441 87.7588C583.602 89.0519 582.402 89.9623 580.841 90.49C579.28 91.0235 577.352 91.2844 575.068 91.2844C572.552 91.2844 570.338 90.7335 568.433 89.6318C566.528 88.53 565.096 86.7498 564.146 84.2795C563.395 82.3427 562.946 79.9652 562.789 77.1644H600V72.2702C600 66.3497 598.986 61.3627 596.971 57.2978H596.965ZM586.043 68.3966H563.138C563.365 66.8831 563.68 65.5262 564.088 64.3549C565.002 61.7338 566.377 59.8782 568.206 58.7765C570.035 57.6747 572.325 57.1238 575.068 57.1238C577.509 57.1238 579.53 57.5065 581.132 58.2604C582.734 59.02 583.952 60.1392 584.79 61.6179C585.629 63.0965 586.049 65.0913 586.049 67.5964V68.3908L586.043 68.3966Z" fill="#2A1E3C"/>
<path d="M274.85 45.2827V54.5028H274.733C273.894 52.5312 272.747 50.8437 271.302 49.4346C269.852 48.0313 268.023 46.9875 265.815 46.3033C263.601 45.619 261.05 45.2769 258.155 45.2769C253.046 45.2769 248.625 46.4135 244.885 48.6924C241.151 50.9713 238.25 54.2708 236.194 58.5967C234.138 62.9226 233.106 67.9327 233.106 73.6271C233.106 79.6985 234.079 84.958 236.025 89.394C237.971 93.8359 240.79 97.234 244.489 99.5825C248.188 101.937 252.551 103.114 257.584 103.114C258.895 103.114 260.135 103.021 261.312 102.853C261.312 102.853 261.324 102.853 261.329 102.853C267.37 102.853 274.78 97.5587 274.78 97.5587V102.32L274.861 102.279C274.861 102.279 274.861 102.308 274.861 102.32H290.642V45.2827H274.85ZM254.665 88.6576C252.796 87.3703 251.351 85.4335 250.32 82.853C249.289 80.2725 248.776 77.2398 248.776 73.7431C248.776 70.4784 249.306 67.6138 250.378 65.1493C251.444 62.6848 252.953 60.8408 254.899 59.6289C256.844 58.4169 259.075 57.8081 261.592 57.8081C264.108 57.8081 266.397 58.3763 268.454 59.5187C270.51 60.6553 272.094 62.2905 273.201 64.4129C274.308 66.541 274.861 69.0403 274.861 71.9281V74.7753C274.861 77.9646 274.308 80.7538 273.201 83.1429C272.094 85.532 270.493 87.3761 268.395 88.6634C266.298 89.9565 263.875 90.6002 261.131 90.6002C258.691 90.6002 256.535 89.9565 254.671 88.6634L254.665 88.6576Z" fill="#2A1E3C"/>
<path d="M350.956 23.6532H338.321V54.5086H338.204C337.366 52.537 336.218 50.8495 334.773 49.4404C333.323 48.0371 331.494 46.9933 329.286 46.3091C327.073 45.6248 324.521 45.2827 321.626 45.2827C316.517 45.2827 312.096 46.4192 308.356 48.6982C304.622 50.9771 301.721 54.2766 299.665 58.6025C297.609 62.9284 296.578 67.9385 296.578 73.6329C296.578 79.7043 297.551 84.9637 299.496 89.3998C301.442 93.8417 304.261 97.2398 307.96 99.5883C311.659 101.943 316.022 103.12 321.055 103.12C322.366 103.12 323.607 103.027 324.783 102.859C324.783 102.859 324.789 102.859 324.795 102.859C330.836 102.859 338.245 97.5645 338.245 97.5645V102.325L338.333 102.285C338.333 102.285 338.333 102.314 338.333 102.331H354.113V26.7962C354.113 25.0623 352.703 23.659 350.962 23.659L350.956 23.6532ZM318.137 88.6634C316.267 87.376 314.822 85.4393 313.791 82.8588C312.76 80.2783 312.247 77.2456 312.247 73.7489C312.247 70.4842 312.778 67.6196 313.849 65.1551C314.915 62.6906 316.424 60.8466 318.37 59.6347C320.315 58.4227 322.546 57.8139 325.057 57.8139C327.568 57.8139 329.863 58.3821 331.919 59.5245C333.975 60.6611 335.56 62.2963 336.667 64.4187C337.773 66.5468 338.327 69.0461 338.327 71.9339V74.7811C338.327 77.9704 337.773 80.7596 336.667 83.1487C335.56 85.5378 333.958 87.3819 331.861 88.6692C329.764 89.9623 327.34 90.606 324.597 90.606C322.156 90.606 320.001 89.9623 318.137 88.6692V88.6634Z" fill="#2A1E3C"/>
<path d="M68.5217 38.1908H81.6109C81.9138 38.1502 82.1643 38.3415 82.205 38.6315L82.1876 50.4552C82.2691 51.1047 82.0419 51.8063 81.5701 52.3572L55.7237 78.2488C55.2402 78.7533 54.5878 79.049 53.9354 79.0722L41.6326 79.0896C41.3181 79.1012 41.085 78.8692 41.0967 78.5619L41.1258 65.5842C41.1491 64.9986 41.4113 64.4071 41.8598 63.9432L66.8324 39.107C67.2751 38.5909 67.8926 38.2546 68.5217 38.185V38.1908Z" fill="#00DB80"/>
<path d="M71.2362 96.8223C70.3333 97.7037 69.1741 98.1966 68.0673 98.1792L24.1454 98.1212C22.8289 98.1038 21.9085 97.176 21.9202 95.8655V53.2212C21.9202 52.1253 22.4444 50.9887 23.3532 50.1073L38.2657 35.4538H11.3824L1.5495 45.1667C0.588346 46.1003 0.0174756 47.3297 0 48.4952L0.0116484 116.208C-0.00582714 117.315 0.366988 118.26 1.02523 118.927C1.68348 119.594 2.62716 119.983 3.75142 119.988L72.2847 120C73.4614 120 74.708 119.461 75.6692 118.527L84.9429 109.046V84.4419L71.2362 96.8223Z" fill="#00DB80"/>
<path d="M116.865 0H48.2151C47.0675 0 45.8733 0.533489 44.9355 1.47289L27.6696 19.0896H98.1486C100.083 19.1186 101.428 20.5277 101.422 22.5109L101.207 92.8211L118.991 75.5175C119.923 74.5839 120.477 73.3546 120.494 72.189V3.7866C120.529 1.56567 119.038 0.0115988 116.871 0.00580002L116.865 0Z" fill="#00DB80"/>
</g>
<defs>
<clipPath id="clip0_7_18">
<rect width="120" height="120" fill="white"/>
</clipPath>
</defs>
</svg>
